<svg width="960" height="220" viewBox="0 0 960 220" fill="none" xmlns="http://www.w3.org/2000/svg">
  <title>DentAlışveriş logo</title>
  <rect x="20" y="20" width="180" height="180" rx="48" fill="#0B1220"/>
  <rect x="32" y="32" width="156" height="156" rx="40" fill="#111827" stroke="#D7B56D" stroke-width="4"/>
  <circle cx="110" cy="110" r="61" fill="url(#glow)" opacity="0.42"/>
  <path d="M109.9 67.8C98.1 55.7 73.8 59.4 67.2 78.5C60 99.2 70.3 132.6 82.2 154.1C87.4 163.2 98.6 161.6 100.4 151.3L105.1 124.2C106.1 119 113.7 119 114.7 124.2L119.4 151.3C121.2 161.6 132.4 163.2 137.6 154.1C149.5 132.6 159.8 99.2 152.6 78.5C146 59.4 121.7 55.7 109.9 67.8Z" fill="#F8FAFC"/>
  <path d="M76 106C88.8 117.6 129.2 117.6 142 106" stroke="#D7B56D" stroke-width="8" stroke-linecap="round"/>
  <path d="M144 54L149.2 67L162 72L149.2 77L144 90L138.8 77L126 72L138.8 67L144 54Z" fill="#D7B56D"/>
  <circle cx="70" cy="60" r="4.5" fill="#D7B56D"/>

  <text x="238" y="132" fill="#0B1220" font-family="Cormorant Garamond, Playfair Display, Georgia, serif" font-size="74" font-weight="700" letter-spacing="0.2">DentAlışveriş</text>

  <defs>
    <radialGradient id="glow" cx="0" cy="0" r="1" gradientUnits="userSpaceOnUse" gradientTransform="translate(110 110) rotate(90) scale(61)">
      <stop stop-color="#D7B56D"/>
      <stop offset="1" stop-color="#D7B56D" stop-opacity="0"/>
    </radialGradient>
  </defs>
</svg>
